<svg xmlns="http://www.w3.org/2000/svg" viewBox="0 0 32 32">
  <rect width="32" height="32" rx="6" fill="#4A90D9"/>
  <g fill="#FFFFFF">
    <path d="M6 7h6v6H6V7zm1.4 2.9l1.3 1.3 2.4-2.5 1 .9-3.4 3.5-2.3-2.3 1-1z"/>
    <rect x="15" y="9" width="11" height="2.2" rx="1.1"/>
    <path d="M6 14h6v6H6v-6zm1.4 1.4v3.2h3.2v-3.2H7.4z"/>
    <rect x="15" y="16.5" width="11" height="2.2" rx="1.1"/>
    <path d="M6 21h6v6H6v-6zm1.4 1.4v3.2h3.2v-3.2H7.4z"/>
    <rect x="15" y="24" width="8" height="2.2" rx="1.1"/>
  </g>
</svg>
